<svg width="306" height="157" fill="none" xmlns="http://www.w3.org/2000/svg"><path d="M24.4 27.3c-.2 0-.5 0-.7-.1-.2 0-.5-.1-.7-.2l-.6-.3c-.2-.1-.4-.3-.5-.4-.2-.2-.3-.3-.4-.5l-.3-.6c-.1-.2-.2-.4-.2-.7 0-.2-.1-.5-.1-.7 0-.2 0-.5.1-.7 0-.2.1-.4.2-.7l.3-.6c.1-.2.3-.4.4-.5.2-.2.3-.3.5-.4l.6-.3c.2-.1.4-.2.7-.2.5-.1.9-.1 1.4 0 .2 0 .5.1.7.2l.6.3c.2.1.4.3.5.4.6.7 1 1.6 1 2.5 0 .9-.4 1.8-1 2.5-.7.7-1.6 1-2.5 1z" fill="#29ABE2"/><path d="M86.4 151.3c-1.9 0-3.5-1.6-3.4-3.6 0-1.9 1.6-3.5 3.6-3.4 1.9 0 3.5 1.6 3.4 3.6 0 1.9-1.6 3.4-3.6 3.4.1 0 0 0 0 0zm16.7-5c-.5-1.9.5-3.8 2.4-4.3s3.8.5 4.3 2.4-.5 3.8-2.4 4.3c-.3.1-.7.1-1 .1-1.4 0-2.8-1-3.3-2.5zm-37.6 1.3c-1.8-.6-2.8-2.6-2.1-4.5.6-1.8 2.6-2.8 4.5-2.1 1.8.6 2.8 2.6 2.1 4.5-.5 1.4-1.9 2.3-3.3 2.3-.4 0-.8-.1-1.2-.2zm56.3-9c-1.1-1.6-.7-3.8.9-4.9 1.6-1.1 3.8-.7 4.9.9 1.1 1.6.7 3.8-.9 4.9-.6.4-1.3.6-2 .6-1.1 0-2.2-.5-2.9-1.5zm-75-1.2c-1.5-1.2-1.8-3.4-.6-4.9 1.2-1.5 3.4-1.8 4.9-.6 1.5 1.2 1.8 3.4.6 4.9-.7.9-1.7 1.3-2.8 1.3-.7 0-1.4-.2-2.1-.7zm90.3-12c-1.5-1.2-1.9-3.4-.7-4.9 1.2-1.5 3.4-1.8 4.9-.7 1.5 1.2 1.9 3.4.7 4.9-.7.9-1.7 1.4-2.8 1.4-.7 0-1.5-.2-2.1-.7zm-104.8-3.5c-1.1-1.6-.6-3.8 1-4.9 1.6-1.1 3.8-.7 4.9.9 1.1 1.6.7 3.8-1 4.9-.6.4-1.3.6-1.9.6-1.2 0-2.3-.5-3-1.5zm242.6-16.5c0-1.9 1.6-3.5 3.5-3.5s3.5 1.6 3.5 3.5-1.6 3.5-3.5 3.5-3.5-1.6-3.5-3.5zm-127.4 2.7c-1.8-.6-2.8-2.6-2.2-4.4.6-1.8 2.6-2.8 4.4-2.2 1.8.6 2.8 2.6 2.2 4.4-.5 1.5-1.9 2.4-3.3 2.4-.3 0-.7 0-1.1-.2zm-124.1-5.6c-.5-1.9.6-3.8 2.4-4.3 1.9-.5 3.8.6 4.3 2.4.5 1.9-.6 3.8-2.4 4.3-.3.1-.6.1-.9.1-1.6.1-3-.9-3.4-2.5zm251.5-17.3c0-1.9 1.6-3.5 3.5-3.5s3.5 1.6 3.5 3.5-1.6 3.5-3.5 3.5-3.5-1.6-3.5-3.5zm-123 3.2c-1.9 0-3.5-1.6-3.5-3.5s1.6-3.5 3.5-3.5 3.5 1.6 3.5 3.5c0 2-1.5 3.5-3.5 3.5zm-131-6.8c0-1.9 1.6-3.5 3.5-3.5s3.5 1.6 3.5 3.5-1.6 3.5-3.5 3.5-3.5-1.6-3.5-3.5zm253.5-16.2c-.3-1.9 1.1-3.7 3-3.9 1.9-.3 3.7 1.1 3.9 3 .2 1.9-1.1 3.7-3 3.9h-.5c-1.6 0-3.1-1.3-3.4-3zM152 68.2c-1.9-.3-3.3-2-3-3.9.3-1.9 2-3.3 3.9-3 1.9.3 3.3 2 3 3.9-.2 1.8-1.7 3-3.5 3h-.4zM20.9 61.3c0-1.9 1.6-3.5 3.5-3.5s3.5 1.6 3.5 3.5-1.6 3.5-3.5 3.5-3.5-1.5-3.5-3.5zM269 47.1c-.8-1.8-.1-3.8 1.6-4.7 1.7-.8 3.8-.1 4.7 1.6.8 1.7.1 3.8-1.6 4.7-.5.2-1 .3-1.5.3-1.3.1-2.6-.6-3.2-1.9zm-112.3 1.5c-1.7-.8-2.5-2.9-1.6-4.7.9-1.7 2.9-2.5 4.7-1.6 1.7.8 2.5 2.9 1.6 4.7-.6 1.3-1.9 2-3.2 2-.4-.1-1-.2-1.5-.4zM20.9 41.1c0-1.9 1.6-3.5 3.5-3.5s3.5 1.6 3.5 3.5-1.6 3.5-3.5 3.5-3.5-1.6-3.5-3.5zm237.2-9.6c-1.3-1.4-1.3-3.6.1-4.9 1.4-1.3 3.6-1.3 5 .1 1.3 1.4 1.3 3.6-.1 5-.7.7-1.6 1-2.4 1-1-.1-1.9-.5-2.6-1.2zm-90.7-.1c-1.4-1.3-1.4-3.6-.1-4.9 1.4-1.4 3.6-1.4 5-.1 1.4 1.3 1.4 3.6.1 5-.7.7-1.6 1.1-2.5 1.1-.9-.1-1.8-.4-2.5-1.1zm75.5-11.3c-1.7-.9-2.4-3-1.5-4.7.9-1.7 3-2.4 4.7-1.5 1.7.9 2.4 3 1.5 4.7-.6 1.2-1.8 1.9-3.1 1.9-.6 0-1.1-.1-1.6-.4zM183 18.5c-.9-1.7-.2-3.8 1.5-4.7 1.7-.9 3.8-.2 4.7 1.5.9 1.7.2 3.8-1.5 4.7-.5.3-1.1.4-1.6.4-1.3 0-2.5-.7-3.1-1.9zm41.8-4.4c-1.9-.3-3.2-2.1-2.9-4 .3-1.9 2.1-3.2 4-2.9 1.9.3 3.2 2.1 2.9 4-.3 1.7-1.8 2.9-3.5 2.9-.1.1-.3 0-.5 0zm-23.1-2.9c-.3-1.9 1-3.7 2.9-4 1.9-.3 3.7 1 4 2.9.3 1.9-1 3.7-2.9 4h-.5c-1.7 0-3.2-1.2-3.5-2.9z" fill="#00C1EB"/><path d="M278.4 132.3c-.2 0-.5 0-.7-.1-.2 0-.4-.1-.7-.2-.3-.1-.4-.2-.6-.3-.2-.1-.4-.3-.5-.4-.7-.7-1-1.5-1-2.5 0-.2 0-.5.1-.7 0-.2.1-.4.2-.6l.3-.6c.1-.2.3-.4.4-.5.2-.2.3-.3.5-.4l.6-.3c.2-.1.4-.2.7-.2 1.1-.2 2.3.1 3.2 1 .2.2.3.3.4.5l.3.6c.1.2.2.4.2.6 0 .2.1.5.1.7 0 .9-.4 1.8-1 2.5-.7.6-1.6.9-2.5.9z" fill="#29ABE2"/><path d="M286.381 110.929l-25.908 25.909a6.999 6.999 0 000 9.899 6.999 6.999 0 009.899 0l25.909-25.909a7 7 0 00-9.9-9.899z" fill="#EB008B"/><path d="M296.456 136.909l-26.14-26.139a6.999 6.999 0 00-9.899 0 6.999 6.999 0 000 9.899l26.139 26.14a7.002 7.002 0 009.9 0 7.002 7.002 0 000-9.9z" fill="#EB008B"/><path d="M24.3 48.6c13.42 0 24.3-10.88 24.3-24.3S37.72 0 24.3 0 0 10.88 0 24.3s10.88 24.3 24.3 24.3z" fill="#F7931E"/></svg>