<svg width="136" height="92" fill="none" xmlns="http://www.w3.org/2000/svg"><path d="M65.211 2.498A18.401 18.401 0 0174.402.02a18.512 18.512 0 0115.949 9.108l2.77 4.754a1.02 1.02 0 001.758 0l2.77-4.754c5.069-8.706 16.354-11.72 25.14-6.697 8.785 5.023 11.826 16.206 6.758 24.912l-19.598 33.55A18.451 18.451 0 0194 70a18.532 18.532 0 01-15.949-9.107l-19.598-33.55c-5.068-8.706-2.027-19.822 6.758-24.845z" fill="#EB008B"/><path d="M19.211 19.498a18.4 18.4 0 019.191-2.478 18.512 18.512 0 0115.949 9.108l2.77 4.754a1.02 1.02 0 001.758 0l2.77-4.754c5.069-8.706 16.354-11.72 25.14-6.697 8.785 5.023 11.826 16.206 6.758 24.912l-19.598 33.55A18.45 18.45 0 0148 87a18.532 18.532 0 01-15.949-9.107l-19.598-33.55c-5.068-8.706-2.027-19.822 6.758-24.845z" fill="#652D90"/></svg>