<svg width="98" height="95" fill="none" xmlns="http://www.w3.org/2000/svg"><path d="M86.432 38.048c-1.947-5.98-8.417-9.263-14.429-7.308l-11.565 3.74V22.388C60.438 16.105 55.304 11 48.987 11s-11.451 5.106-11.451 11.389v12.09L25.989 30.74c-6.03-1.936-12.482 1.329-14.428 7.308-1.947 5.978 1.336 12.413 7.348 14.349l11.565 3.74-7.138 9.774c-3.721 5.087-2.576 12.205 2.539 15.906C27.917 83.28 30.265 84 32.593 84c3.55 0 7.042-1.632 9.275-4.688l7.138-9.775 7.138 9.775C58.377 82.387 61.869 84 65.419 84c2.329 0 4.695-.702 6.718-2.183 5.115-3.701 6.26-10.819 2.538-15.906l-7.138-9.775 11.566-3.739c5.993-1.936 9.295-8.37 7.329-14.35z" fill="#F7931E"/></svg>