<svg width="204" height="37" fill="none" xmlns="http://www.w3.org/2000/svg"><path d="M4.806 18.484a4.447 4.447 0 004.451-4.442A4.447 4.447 0 004.806 9.6a4.447 4.447 0 00-4.452 4.442 4.447 4.447 0 004.452 4.442zM.354 24.03a4.448 4.448 0 014.452-4.441 4.448 4.448 0 014.451 4.442H.354z" fill="#65308F"/><path d="M14.784 18.484a4.447 4.447 0 004.452-4.442A4.447 4.447 0 0014.784 9.6a4.447 4.447 0 00-4.451 4.442 4.447 4.447 0 004.451 4.442z" fill="#F69320"/><path d="M24.834 18.484a4.447 4.447 0 004.451-4.442A4.447 4.447 0 0024.834 9.6a4.447 4.447 0 00-4.452 4.442 4.447 4.447 0 004.452 4.442z" fill="#E90E8B"/><path d="M10.364 24.03a4.448 4.448 0 014.452-4.441 4.448 4.448 0 014.451 4.442h-8.903z" fill="#F69320"/><path d="M20.382 24.03a4.448 4.448 0 014.452-4.441 4.448 4.448 0 014.451 4.442h-8.903z" fill="#E90E8B"/><path d="M29.285 26.255H.355v4.442h28.93v-4.442z" fill="#65308F"/><path d="M14.817.713l-3.337 3.33 3.337 3.329 3.336-3.33L14.817.713z" fill="#F69320"/><path d="M44.367 30.674h-6.179l6.964-21.058h7.835l6.964 21.058h-6.187l-4.616-15.261h-.165l-4.616 15.261zm-1.154-8.312H54.84v4.277H43.213v-4.277zm18.755 8.312V9.616h9.154c1.61 0 2.96.22 4.06.65 1.099.43 1.923 1.042 2.48 1.833.558.791.84 1.716.84 2.79 0 .775-.172 1.48-.51 2.114a4.56 4.56 0 01-1.429 1.599c-.612.43-1.327.728-2.143.893v.203a5.307 5.307 0 012.473.682 4.778 4.778 0 011.774 1.74c.44.735.66 1.597.66 2.592 0 1.152-.299 2.178-.903 3.079-.605.9-1.453 1.606-2.56 2.115-1.107.517-2.426.776-3.957.776h-9.939v-.008zM67.7 18.131h2.348c.502 0 .942-.078 1.327-.235a2.05 2.05 0 00.903-.681c.22-.298.321-.666.321-1.097 0-.65-.235-1.151-.698-1.496-.471-.345-1.06-.517-1.775-.517h-2.433v4.026h.007zm0 7.976h2.678c.965 0 1.68-.18 2.166-.54.48-.361.723-.894.723-1.6 0-.493-.11-.908-.338-1.252a2.136 2.136 0 00-.965-.784c-.417-.18-.92-.266-1.5-.266H67.7v4.442zm33.35-8.595h-5.81a4.055 4.055 0 00-.321-1.308 3.016 3.016 0 00-.722-1.01 3.247 3.247 0 00-1.107-.659 4.32 4.32 0 00-1.476-.235c-.966 0-1.775.235-2.434.698-.66.47-1.162 1.136-1.508 2.005-.337.87-.51 1.92-.51 3.134 0 1.293.173 2.366.518 3.235.346.87.848 1.52 1.508 1.951.66.431 1.452.65 2.379.65.526 0 1.005-.07 1.42-.203a3.303 3.303 0 001.092-.58c.306-.25.565-.564.761-.925.197-.36.33-.767.4-1.214l5.81.04c-.07.892-.321 1.793-.753 2.718-.432.924-1.044 1.77-1.837 2.554-.793.775-1.775 1.402-2.944 1.88-1.17.47-2.529.713-4.075.713-1.94 0-3.674-.415-5.213-1.246-1.539-.83-2.748-2.052-3.635-3.658-.887-1.614-1.335-3.58-1.335-5.915 0-2.343.456-4.317 1.359-5.93.902-1.614 2.127-2.829 3.666-3.651 1.539-.823 3.258-1.238 5.15-1.238 1.335 0 2.56.18 3.682.548a8.743 8.743 0 012.944 1.59 7.916 7.916 0 012.041 2.57c.526 1.01.841 2.178.95 3.486zm8.369 13.162V9.616h14.839v4.606h-9.107v3.62h8.204v4.606h-8.204v8.226h-5.732zm21.103.242c-1.012 0-1.9-.164-2.677-.5a3.94 3.94 0 01-1.821-1.52c-.44-.682-.66-1.544-.66-2.594 0-.862.149-1.598.44-2.217a3.999 3.999 0 011.24-1.504 5.74 5.74 0 011.853-.893 11.385 11.385 0 012.285-.4c.887-.07 1.601-.148 2.135-.25.534-.102.927-.243 1.17-.423a.875.875 0 00.361-.729v-.04c0-.407-.157-.728-.471-.947-.314-.22-.722-.33-1.217-.33-.542 0-.981.118-1.327.353-.337.235-.541.596-.612 1.09h-5.237a5.397 5.397 0 01.919-2.656c.55-.815 1.343-1.465 2.395-1.951 1.052-.494 2.363-.736 3.933-.736 1.13 0 2.151.133 3.054.399s1.664.635 2.3 1.097c.628.47 1.115 1.018 1.445 1.645a4.34 4.34 0 01.502 2.045v10.819h-5.315v-2.225h-.125c-.315.587-.699 1.065-1.147 1.426a4.34 4.34 0 01-1.538.79c-.566.173-1.194.252-1.885.252zm1.853-3.572c.432 0 .84-.086 1.225-.266.385-.18.691-.431.934-.768.243-.337.361-.744.361-1.222v-1.316a6.772 6.772 0 01-.479.172c-.165.055-.345.11-.534.157a9.673 9.673 0 01-.596.133c-.212.04-.424.078-.652.11-.439.07-.801.18-1.075.336-.275.157-.487.345-.621.565-.133.219-.204.47-.204.744 0 .439.157.775.463 1.01.307.228.699.345 1.178.345zm10.881 3.33V14.88h5.402v3h.165c.329-.986.895-1.77 1.688-2.341.793-.58 1.742-.862 2.842-.862 1.114 0 2.072.29 2.873.877.801.588 1.288 1.363 1.452 2.327h.165c.267-.964.84-1.74 1.712-2.327.871-.587 1.892-.877 3.07-.877 1.515 0 2.747.486 3.689 1.457.943.971 1.414 2.272 1.414 3.886v10.654h-5.692v-9.213c0-.69-.173-1.238-.526-1.63-.354-.391-.825-.587-1.413-.587-.581 0-1.045.196-1.382.588-.338.391-.511.94-.511 1.63v9.212h-5.44v-9.213c0-.69-.173-1.238-.526-1.63-.354-.391-.825-.587-1.413-.587-.393 0-.731.086-1.013.266-.283.18-.503.431-.652.768-.157.33-.235.729-.235 1.191v9.213h-5.669v-.008zm27.29 0V14.88h5.692v15.794h-5.692zm2.85-17.439c-.769 0-1.429-.25-1.978-.76-.55-.51-.824-1.12-.824-1.833 0-.713.274-1.324.824-1.833.549-.51 1.209-.76 1.978-.76.778 0 1.437.25 1.987.76.549.509.816 1.12.816 1.833 0 .713-.275 1.324-.816 1.833a2.86 2.86 0 01-1.987.76zm11.416-3.619v21.058h-5.692V9.616h5.692zm6.351 26.957c-.652 0-1.272-.047-1.869-.149a8.263 8.263 0 01-1.554-.407l1.24-4.035c.699.243 1.296.353 1.79.322.495-.032.856-.251 1.092-.65l.125-.29-5.566-16.5h5.935l2.552 10.945h.165l2.598-10.944h5.975l-5.771 17.11a7.754 7.754 0 01-1.248 2.334c-.549.69-1.264 1.238-2.151 1.645-.887.423-1.994.62-3.313.62z" fill="#65308F"/></svg>