<svg width="30" height="31" fill="none" xmlns="http://www.w3.org/2000/svg"><path d="M4.806 18.484a4.447 4.447 0 004.451-4.442A4.447 4.447 0 004.806 9.6a4.447 4.447 0 00-4.452 4.442 4.447 4.447 0 004.452 4.442zM.354 24.03a4.448 4.448 0 014.452-4.441 4.448 4.448 0 014.451 4.442H.354z" fill="#65308F"/><path d="M14.784 18.484a4.447 4.447 0 004.452-4.442A4.447 4.447 0 0014.784 9.6a4.447 4.447 0 00-4.451 4.442 4.447 4.447 0 004.451 4.442z" fill="#F69320"/><path d="M24.834 18.484a4.447 4.447 0 004.451-4.442A4.447 4.447 0 0024.834 9.6a4.447 4.447 0 00-4.452 4.442 4.447 4.447 0 004.452 4.442z" fill="#E90E8B"/><path d="M10.364 24.03a4.448 4.448 0 014.452-4.441 4.448 4.448 0 014.451 4.442h-8.903z" fill="#F69320"/><path d="M20.382 24.03a4.448 4.448 0 014.452-4.441 4.448 4.448 0 014.451 4.442h-8.903z" fill="#E90E8B"/><path d="M29.285 26.255H.355v4.442h28.93v-4.442z" fill="#65308F"/><path d="M14.817.713l-3.337 3.33 3.337 3.329 3.336-3.33L14.817.713z" fill="#F69320"/></svg>