<svg width="76" height="73" fill="none" xmlns="http://www.w3.org/2000/svg"><path d="M75.432 27.048c-1.947-5.98-8.417-9.263-14.429-7.308l-11.565 3.74V11.388C49.438 5.106 44.304 0 37.987 0S26.536 5.106 26.536 11.389v12.09L14.989 19.74C8.96 17.804 2.507 21.069.561 27.048c-1.947 5.979 1.336 12.413 7.348 14.349l11.565 3.74-7.138 9.774c-3.721 5.087-2.576 12.205 2.539 15.906C16.917 72.28 19.265 73 21.593 73c3.55 0 7.042-1.632 9.275-4.688l7.138-9.775 7.138 9.775C47.377 71.387 50.869 73 54.419 73c2.329 0 4.695-.702 6.718-2.183 5.115-3.701 6.26-10.819 2.538-15.906l-7.137-9.775 11.565-3.739c5.993-1.936 9.295-8.37 7.329-14.35z" fill="#EB008B"/></svg>