<svg width="40" height="40" fill="none" xmlns="http://www.w3.org/2000/svg"><path d="M20 39.5C9.226 39.5.5 30.774.5 20S9.226.5 20 .5 39.5 9.226 39.5 20 30.774 39.5 20 39.5z" stroke="#652D90"/><path d="M29.813 25.711c-.366-.654-1.064-1.462-2.088-2.424l-.034-.033c-.488-.454-.786-.755-.908-.908-.224-.294-.278-.588-.156-.888.088-.227.414-.708.983-1.436.298-.387.536-.7.712-.934 1.26-1.683 1.81-2.758 1.64-3.225l-.067-.107c-.041-.067-.156-.127-.34-.18a1.675 1.675 0 00-.698-.027l-3.152.02c-.054-.02-.122-.02-.217.006l-.142.034-.054.027-.041.026a.49.49 0 00-.122.114.678.678 0 00-.109.194 17.921 17.921 0 01-1.172 2.47c-.238.4-.482.794-.746 1.182a5.357 5.357 0 01-.57.734 3.99 3.99 0 01-.413.38c-.122.094-.217.134-.285.121a1.823 1.823 0 01-.183-.047.715.715 0 01-.244-.267 1.356 1.356 0 01-.128-.427 4.785 4.785 0 01-.041-.447c-.007-.127 0-.301.007-.528.006-.227.013-.38.013-.46 0-.281.007-.582.014-.902l.027-.775c.007-.187.013-.394.013-.6 0-.214-.013-.381-.04-.501a1.537 1.537 0 00-.109-.354.563.563 0 00-.223-.26 1.238 1.238 0 00-.367-.147c-.386-.087-.88-.134-1.477-.14-1.356-.014-2.23.073-2.617.26a1.51 1.51 0 00-.414.327c-.128.16-.149.247-.054.26.434.067.746.22.929.474l.068.134c.047.093.101.26.156.507.047.24.081.508.101.802.034.534.034.988 0 1.368-.034.38-.074.675-.101.888-.02.18-.075.354-.15.515-.04.08-.08.166-.128.24a.207.207 0 01-.055.053.905.905 0 01-.298.054c-.102 0-.224-.054-.373-.154a2.696 2.696 0 01-.454-.42 5.4 5.4 0 01-.529-.755 11.521 11.521 0 01-.61-1.142l-.176-.32a22.07 22.07 0 01-.447-.895 14.114 14.114 0 01-.502-1.135.758.758 0 00-.264-.354l-.055-.033a.902.902 0 00-.176-.094 1.078 1.078 0 00-.25-.073l-2.997.02c-.305 0-.515.067-.624.207l-.04.067a.308.308 0 00-.034.173c0 .08.02.18.068.294a35.49 35.49 0 001.43 2.985 33.7 33.7 0 001.342 2.316c.38.588.766 1.135 1.16 1.656.393.521.657.855.779 1.002.129.147.23.254.298.327l.271.26a6.4 6.4 0 00.773.628c.34.247.712.487 1.126.721.413.234.888.434 1.437.581a4.976 4.976 0 001.6.18h1.26c.258-.02.448-.1.583-.24l.041-.053a1.012 1.012 0 00.122-.501 3.648 3.648 0 01.068-.848c.054-.254.115-.44.19-.568.101-.193.244-.354.42-.48.027-.014.061-.027.088-.04.176-.06.38 0 .617.173.237.174.46.38.671.634.21.254.461.535.753.848.291.314.549.548.766.701l.216.134c.177.1.373.18.57.24.23.074.44.094.61.054l2.8-.047c.278 0 .495-.047.644-.14.156-.094.244-.194.271-.3a.856.856 0 00.007-.375c-.014-.1-.04-.193-.075-.287-.04-.033-.068-.08-.095-.12z" fill="#633484"/></svg>